<svg width="2302" height="667" viewBox="0 0 2302 667" fill="none" xmlns="http://www.w3.org/2000/svg">
<path d="M725.688 417.188L688.193 353.183H648.786V417.188H626.575V250.01H693.447C707.776 250.01 720.036 255.105 730.226 265.294C740.416 275.325 745.511 287.505 745.511 301.835C745.511 312.662 742.247 322.533 735.719 331.449C729.35 340.366 721.071 346.655 710.881 350.317L750.288 417.188H725.688ZM648.786 270.787V333.121H693.447C701.726 333.121 708.732 330.096 714.463 324.046C720.355 317.836 723.3 310.433 723.3 301.835C723.3 293.237 720.355 285.913 714.463 279.863C708.732 273.813 701.726 270.787 693.447 270.787H648.786Z" fill="#FEFEFE"/>
<path d="M903.533 396.172H981.152V417.188H881.323V250.01H979.958V271.026H903.533V322.374H973.987V343.152H903.533V396.172Z" fill="#FEFEFE"/>
<path d="M1170.69 420.293C1155.08 420.293 1141.71 416.631 1130.56 409.307C1119.58 401.983 1111.86 391.952 1107.4 379.215L1126.5 368.229C1133.03 388.449 1147.92 398.56 1171.16 398.56C1182.63 398.56 1191.39 396.251 1197.44 391.634C1203.49 386.857 1206.51 380.568 1206.51 372.767C1206.51 364.806 1203.49 358.835 1197.44 354.855C1191.39 350.874 1181.27 346.655 1167.1 342.197C1160.1 339.968 1154.76 338.216 1151.1 336.943C1147.44 335.51 1142.82 333.44 1137.25 330.733C1131.84 327.867 1127.78 325.001 1125.07 322.135C1122.36 319.11 1119.9 315.209 1117.67 310.433C1115.6 305.656 1114.56 300.243 1114.56 294.193C1114.56 279.704 1119.66 268.24 1129.85 259.801C1140.04 251.204 1152.46 246.905 1167.1 246.905C1180.32 246.905 1191.78 250.248 1201.5 256.936C1211.37 263.623 1218.77 272.459 1223.71 283.445L1205.08 294.193C1197.91 276.997 1185.26 268.399 1167.1 268.399C1158.03 268.399 1150.7 270.628 1145.13 275.086C1139.56 279.544 1136.77 285.595 1136.77 293.237C1136.77 300.561 1139.4 306.134 1144.65 309.955C1149.91 313.776 1158.98 317.757 1171.88 321.896C1176.5 323.329 1179.76 324.364 1181.67 325.001C1183.58 325.638 1186.53 326.753 1190.51 328.345C1194.65 329.937 1197.67 331.211 1199.58 332.166C1201.5 333.121 1204.04 334.475 1207.23 336.226C1210.57 337.977 1213.04 339.649 1214.63 341.241C1216.22 342.834 1218.05 344.824 1220.12 347.212C1222.35 349.441 1223.95 351.75 1224.9 354.138C1225.86 356.526 1226.65 359.313 1227.29 362.497C1228.08 365.522 1228.48 368.786 1228.48 372.289C1228.48 386.937 1223.15 398.639 1212.48 407.396C1201.81 415.994 1187.88 420.293 1170.69 420.293Z" fill="#FEFEFE"/>
<path d="M1384.57 396.172H1456.7V417.188H1362.36V250.01H1384.57V396.172Z" fill="#FEFEFE"/>
<path d="M1587.72 250.01H1609.93V417.188H1587.72V250.01Z" fill="#FEFEFE"/>
<path d="M1858.43 250.01H1880.64V417.188H1862.73L1776.75 292.282V417.188H1754.54V250.01H1772.46L1858.43 374.677V250.01Z" fill="#FEFEFE"/>
<path d="M2146.71 417.188H2119.49L2047.36 336.943V417.188H2025.15V250.01H2047.36V325.479L2117.1 250.01H2144.33L2070.53 331.211L2146.71 417.188Z" fill="#FEFEFE"/>
<path fill-rule="evenodd" clip-rule="evenodd" d="M420.739 365.934C420.833 374.671 420.547 383.393 419.877 392.099C413.534 428.775 392.865 455.349 357.868 471.82C314.637 488.083 275.307 482.086 239.879 453.832C227.026 441.559 217.84 427.031 211.458 410.905C210.236 407.816 208.596 404.545 208.013 401.911C204.374 385.467 204.661 369.114 208.874 352.852C209.374 350.989 209.913 349.237 210.597 347.128C216.342 329.4 226.246 314.137 240.31 301.339C248.962 292.715 258.005 284.538 267.439 276.81C277.487 285.804 287.247 295.07 296.721 304.61C285.798 315.115 275.033 325.745 264.424 336.498C258.924 342.58 254.762 349.395 251.936 356.94C251.201 358.902 250.846 360.587 250.214 362.663C249.085 366.372 248.511 370.188 248.491 374.111C247.498 378.869 248.286 383.138 248.991 388.192L249.353 389.646C255.651 415.386 272.301 431.602 299.304 438.297C325.82 442.387 347.782 434.891 365.189 415.811C370.005 409.596 374.523 403.373 376.885 395.96L377.246 394.552C378.102 390.776 378.533 386.96 378.538 383.105C380.029 365.412 374.718 349.876 362.605 336.498C330.379 306.174 298.369 275.512 266.577 244.512C244.021 226.224 219.045 222.681 191.65 233.883C163.21 250.254 151.87 274.102 157.631 305.428C163.32 320.925 172.793 334.007 186.052 344.675C185.495 351.748 184.778 358.834 183.899 365.934L183.537 371.021C183.537 371.021 182.03 388.971 181.315 397.823C169.575 386.268 157.661 374.82 145.574 363.481C110.752 327.068 104.149 286.458 125.765 241.65C150.8 202.033 187.689 184.181 236.434 188.094C253.975 191.01 270.052 197.278 284.663 206.9C294.806 214.482 304.566 222.523 313.945 231.021C325.732 219.414 338.651 209.193 352.701 200.359C397.811 179.361 439.725 183.995 478.441 214.259C507.912 241.803 518.678 274.918 510.738 313.604C507.072 325.408 501.905 336.582 495.236 347.128C478.986 365.83 461.474 383.546 442.7 400.276C443.437 392.967 443.868 385.608 443.992 378.199C443.343 366.95 442.338 355.776 440.978 344.675C451.685 335.235 460.298 324.333 466.815 311.969C476.897 280.839 468.142 255.901 440.547 237.153C401.974 219.633 370.252 227.4 345.38 260.457C344.806 261.274 344.806 262.092 345.38 262.909C358.825 275.001 372.031 287.266 384.997 299.704C391.722 306.487 398.038 313.573 403.944 320.963C412.843 334.87 418.441 349.86 420.739 365.934Z" fill="#3DA466"/>
</svg>
